HIERARCHY
ROOT hip
{
  OFFSET 0 0 0
  CHANNELS 6 Xposition Yposition Zposition Zrotation Yrotation Xrotation
  JOINT abdomen
  {
    OFFSET 0 20.6881 -0.73152
    CHANNELS 3 Zrotation Xrotation Yrotation
    JOINT chest
    {
      OFFSET 0 11.7043 -0.48768
      CHANNELS 3 Zrotation Xrotation Yrotation
      JOINT neck
      {
        OFFSET 0 22.1894 -2.19456
        CHANNELS 3 Zrotation Xrotation Yrotation
        JOINT head
        {
          OFFSET -0.24384 7.07133 1.2192
          CHANNELS 3 Zrotation Xrotation Yrotation
          JOINT leftEye
          {
            OFFSET 4.14528 8.04674 8.04672
            CHANNELS 3 Zrotation Xrotation Yrotation
            End Site
            {
              OFFSET 1 0 0
            }
          }
          JOINT rightEye
          {
            OFFSET -3.6576 8.04674 8.04672
            CHANNELS 3 Zrotation Xrotation Yrotation
            End Site
            {
              OFFSET 1 0 0
            }
          }
        }
      }
      JOINT rCollar
      {
        OFFSET -2.68224 19.2634 -4.8768
        CHANNELS 3 Zrotation Xrotation Yrotation
        JOINT rShldr
        {
          OFFSET -8.77824 -1.95073 1.46304
          CHANNELS 3 Zrotation Xrotation Yrotation
          JOINT rForeArm
          {
            OFFSET -28.1742 -1.7115 0.48768
            CHANNELS 3 Zrotation Xrotation Yrotation
            JOINT rHand
            {
              OFFSET -22.5879 0.773209 7.07136
              CHANNELS 3 Zrotation Xrotation Yrotation
              JOINT rThumb1
              {
                OFFSET -1.2192 -0.487915 3.41376
                CHANNELS 3 Zrotation Xrotation Yrotation
                JOINT rThumb2
                {
                  OFFSET -3.37035 -0.52449 3.41376
                  CHANNELS 3 Zrotation Xrotation Yrotation
                  End Site
                  {
                    OFFSET -1.78271 -1.18214 1.43049
                  }
                }
              }
              JOINT rIndex1
              {
                OFFSET -7.75947 0.938293 5.60832
                CHANNELS 3 Zrotation Xrotation Yrotation
                JOINT rIndex2
                {
                  OFFSET -2.54057 -0.884171 1.56538
                  CHANNELS 3 Zrotation Xrotation Yrotation
                  End Site
                  {
                    OFFSET -1.62519 -0.234802 1.16502
                  }
                }
              }
              JOINT rMid1
              {
                OFFSET -8.24714 1.18213 3.41376
                CHANNELS 3 Zrotation Xrotation Yrotation
                JOINT rMid2
                {
                  OFFSET -3.10165 -0.590103 1.0647
                  CHANNELS 3 Zrotation Xrotation Yrotation
                  End Site
                  {
                    OFFSET -2.48547 -0.328903 0.83742
                  }
                }
              }
              JOINT rRing1
              {
                OFFSET -8.82822 0.546677 1.51678
                CHANNELS 3 Zrotation Xrotation Yrotation
                JOINT rRing2
                {
                  OFFSET -2.60934 -0.819778 -0.0198488
                  CHANNELS 3 Zrotation Xrotation Yrotation
                  End Site
                  {
                    OFFSET -2.33842 -0.294052 0.168128
                  }
                }
              }
              JOINT rPinky1
              {
                OFFSET -8.27202 -0.0477905 -0.4584
                CHANNELS 3 Zrotation Xrotation Yrotation
                JOINT rPinky2
                {
                  OFFSET -1.82734 -0.647385 -0.700984
                  CHANNELS 3 Zrotation Xrotation Yrotation
                  End Site
                  {
                    OFFSET -1.69225 -0.51767 -0.607171
                  }
                }
              }
            }
          }
        }
      }
      JOINT lCollar
      {
        OFFSET 2.68224 19.2634 -4.8768
        CHANNELS 3 Zrotation Xrotation Yrotation
        JOINT lShldr
        {
          OFFSET 8.77824 -1.95073 1.46304
          CHANNELS 3 Zrotation Xrotation Yrotation
          JOINT lForeArm
          {
            OFFSET 28.1742 -1.7115 0.48768
            CHANNELS 3 Zrotation Xrotation Yrotation
            JOINT lHand
            {
              OFFSET 22.5879 0.773209 7.07136
              CHANNELS 3 Zrotation Xrotation Yrotation
              JOINT lThumb1
              {
                OFFSET 1.2192 -0.487915 3.41376
                CHANNELS 3 Zrotation Xrotation Yrotation
                JOINT lThumb2
                {
                  OFFSET 3.37035 -0.52449 3.41376
                  CHANNELS 3 Zrotation Xrotation Yrotation
                  End Site
                  {
                    OFFSET 1.78271 -1.18214 1.43049
                  }
                }
              }
              JOINT lIndex1
              {
                OFFSET 7.75947 0.938293 5.60832
                CHANNELS 3 Zrotation Xrotation Yrotation
                JOINT lIndex2
                {
                  OFFSET 2.54057 -0.884171 1.56538
                  CHANNELS 3 Zrotation Xrotation Yrotation
                  End Site
                  {
                    OFFSET 1.62519 -0.234802 1.16502
                  }
                }
              }
              JOINT lMid1
              {
                OFFSET 8.24714 1.18213 3.41376
                CHANNELS 3 Zrotation Xrotation Yrotation
                JOINT lMid2
                {
                  OFFSET 3.10165 -0.590103 1.0647
                  CHANNELS 3 Zrotation Xrotation Yrotation
                  End Site
                  {
                    OFFSET 2.48547 -0.328903 0.83742
                  }
                }
              }
              JOINT lRing1
              {
                OFFSET 8.82822 0.546677 1.51678
                CHANNELS 3 Zrotation Xrotation Yrotation
                JOINT lRing2
                {
                  OFFSET 2.60934 -0.819778 -0.0198488
                  CHANNELS 3 Zrotation Xrotation Yrotation
                  End Site
                  {
                    OFFSET 2.33842 -0.294052 0.168128
                  }
                }
              }
              JOINT lPinky1
              {
                OFFSET 8.27202 -0.0477905 -0.4584
                CHANNELS 3 Zrotation Xrotation Yrotation
                JOINT lPinky2
                {
                  OFFSET 1.82734 -0.647385 -0.700984
                  CHANNELS 3 Zrotation Xrotation Yrotation
                  End Site
                  {
                    OFFSET 1.69225 -0.51767 -0.607171
                  }
                }
              }
            }
          }
        }
      }
    }
  }
  JOINT rButtock
  {
    OFFSET -8.77824 4.35084 1.2192
    CHANNELS 3 Zrotation Xrotation Yrotation
    JOINT rThigh
    {
      OFFSET 0 -1.70687 -2.19456
      CHANNELS 3 Zrotation Xrotation Yrotation
      JOINT rShin
      {
        OFFSET 0 -36.8199 0.73152
        CHANNELS 3 Zrotation Xrotation Yrotation
        JOINT rFoot
        {
          OFFSET 0.73152 -45.1104 -5.12064
          CHANNELS 3 Zrotation Xrotation Yrotation
          End Site
          {
            OFFSET -1.1221 -3.69964 12.103
          }
        }
      }
    }
  }
  JOINT lButtock
  {
    OFFSET 8.77824 4.35084 1.2192
    CHANNELS 3 Zrotation Xrotation Yrotation
    JOINT lThigh
    {
      OFFSET 0 -1.70687 -2.19456
      CHANNELS 3 Zrotation Xrotation Yrotation
      JOINT lShin
      {
        OFFSET 0 -36.8199 0.73152
        CHANNELS 3 Zrotation Xrotation Yrotation
        JOINT lFoot
        {
          OFFSET -0.73152 -45.1104 -5.12064
          CHANNELS 3 Zrotation Xrotation Yrotation
          End Site
          {
            OFFSET 1.1221 -3.69964 12.103
          }
        }
      }
    }
  }
}
MOTION
Frames:	4
Frame Time:	0.03333
0.0 0.0 0.0 0.0 0.0 0.0 0.0 0.0 0.0 0.0 0.0 0.0 0.0 0.0 0.0 0.0 0.0 0.0 0.0 0.0 0.0 0.0 0.0 0.0 0.0 0.0 0.0 0.0 0.0 0.0 0.0 0.0 0.0 0.0 0.0 0.0 0.0 0.0 0.0 0.0 0.0 0.0 0.0 0.0 0.0 0.0 0.0 0.0 0.0 0.0 0.0 0.0 0.0 0.0 0.0 0.0 0.0 0.0 0.0 0.0 0.0 0.0 0.0 0.0 0.0 0.0 0.0 0.0 0.0 0.0 0.0 0.0 0.0 0.0 0.0 0.0 0.0 0.0 0.0 0.0 0.0 0.0 0.0 0.0 0.0 0.0 0.0 0.0 0.0 0.0 0.0 0.0 0.0 0.0 0.0 0.0 0.0 0.0 0.0 0.0 0.0 0.0 0.0 0.0 0.0 0.0 0.0 0.0 0.0 0.0 0.0 0.0 0.0 0.0 0.0 0.0 0.0 0.0 0.0 0.0 0.0 0.0 0.0 0.0 0.0 0.0 0.0 0.0 0.0 0.0 0.0 0.0
0.6678 1.5151 1.6674000000000002 -64.270494 16.260429 103.834321 -164.544341 18.673749 -4.436115 150.28706 -18.80802 -147.036005 157.399645 49.055268 86.044763 -165.262384 -60.739634 29.098251 -177.452523 0.652645 28.735136 -119.417492 21.133994 35.421962 -89.574455 -21.768602 74.281195 -179.332931 74.80826 36.310276 -7.746385 8.576979 83.252735 153.194694 -16.943449 -59.0986 157.846755 79.228887 -54.110456 120.622962 6.282666 -157.469661 -80.380025 -12.361985 -158.160401 -95.462075 59.143404 -134.027501 -151.362748 12.935519 41.148289 -12.824735 5.490332 -33.831214 -50.878914 -32.912119 152.924257 154.005104 -18.99609 -178.580479 -38.587093 30.012411 115.319079 133.019693 42.240845 88.867047 130.925246 -67.782879 152.839214 -133.746134 53.212325 137.1644 -176.874923 -11.712381 -41.513054 -11.056794 17.840721 -139.534573 20.494277 49.779888 -11.035283 -2.659325 -7.065989 171.635827 -33.453297 -37.966118 -84.909477 -177.531124 39.44558 112.267076 -17.812737 -18.940361 -58.095646 167.29096 3.893002 -38.969619 114.199889 -5.732007 -138.87645 -19.514775 -0.361691 -176.571626 103.4637 -46.748792 -14.337817 -133.173401 -12.216816 -128.663462 -97.895382 -56.995796 -43.912288 132.273739 -61.936611 -115.144282 -86.760779 -19.602569 -172.16927 54.414165 -0.411569 66.447957 163.090614 5.217863 -82.65913 -117.901919 48.61833 42.30603 126.903289 7.734496 -92.357685 0.537443 -37.07968 -42.02221
1.0487 1.5535999999999999 2.5419 -64.503371 14.732792 106.443645 -163.244461 16.992853 -124.525746 174.09469 36.718309 118.667763 140.443693 27.17608 47.635905 131.314174 -29.751211 -65.863078 -171.112322 2.366229 29.763748 -114.067945 22.207907 33.672942 37.829854 -23.38296 78.473622 -11.616982 -20.904224 176.587776 14.961048 -61.104225 -101.593052 10.014122 33.922158 151.587125 30.259095 -76.266278 -163.243723 135.900746 36.165712 -28.741871 -10.586231 -23.972659 -109.489022 14.676618 -53.411043 163.435784 163.914307 24.846174 66.370322 -78.368021 -64.625638 -115.904799 82.510487 23.143703 50.033785 -113.021578 -35.428542 153.689687 -117.912067 -22.174928 165.906887 30.479796 -63.591872 -167.48174 -8.581031 -36.361255 -4.851093 21.991213 -51.941878 58.976282 177.098501 44.374828 71.366927 -149.793317 -22.435241 79.91183 63.221383 58.277426 -44.750124 24.726797 58.515841 -152.171791 -27.278982 -34.271045 -82.73783 -1.464626 -28.059447 137.421191 -86.532141 -24.42978 -75.636828 -146.087815 -52.551876 -11.739018 103.635443 7.414586 -131.101984 -22.232304 -13.157284 179.342492 -112.700467 12.180561 173.748361 66.931571 67.742989 118.87004 -11.88594 -25.926496 83.948676 -128.723331 -69.910012 97.267529 -83.213399 16.492704 169.272712 45.761509 -11.449371 85.910515 -153.222382 -36.327499 -13.410665 110.651987 50.687069 168.958838 140.807798 -31.142117 12.486454 -41.634428 -1.450267 -103.436668
1.4406 1.5876000000000001 3.3896 -65.635196 13.621702 108.503521 -167.36661 21.172786 62.509029 -172.289462 -29.315904 -32.292051 140.718673 19.3537 115.338763 164.474749 -58.702879 -10.485543 -166.853742 3.511862 29.796648 -109.966203 22.914645 32.267218 43.905064 -40.508519 63.776116 -11.371032 -30.588788 -176.846759 -167.47228 77.826696 -115.56304 145.777273 -22.660838 -69.006709 13.684021 -75.736242 -178.055354 139.118535 8.538199 -43.371388 88.762049 40.343172 -84.741568 101.108886 -63.549317 -166.862014 -33.5768 -44.22083 64.628431 173.872886 -2.869262 110.861301 -168.723655 -71.458864 71.832767 -3.138012 6.140468 -67.011369 -38.432786 33.786499 112.685771 -174.258182 -8.609286 49.114065 -92.566685 -59.634048 -74.565537 -150.805527 36.211358 155.935002 167.954115 5.412831 -28.951398 -4.927577 44.754018 -136.04791 -11.370229 10.804161 17.239533 25.666177 23.746744 149.748789 -46.629219 -22.957277 -86.669187 134.339442 21.395994 136.192408 89.086858 1.890947 -63.086637 56.660223 59.181866 55.749726 -18.294185 -1.005107 -48.486695 -28.864153 -2.15805 -174.934515 107.857081 -49.736889 -12.728223 24.518756 -26.752945 -102.149529 -65.512938 39.5224 -180.0 -159.389424 -23.782019 -77.181431 58.486854 63.155823 -57.933602 84.058103 2.402885 147.917227 -143.100324 70.3427 -180.0 -46.760249 6.646483 83.788314 131.417639 -19.564222 -20.365424 161.11118 -60.34711 82.12573
